# xmcd
#
# Track frame offsets:
#	150
#	17078
#	29904
#	42466
#	54694
#	67449
#	75261
#	86680
#	103157
#	113530
#	124835
#	142208
#	150678
#	161654
#	174838
#	189491
#	200939
#	208814
#	217882
#	231495
#	242042
#	253040
#	265252
#	279267
#	292322
#	302281
#	318986
#	327370
#	336148
#	350390
#
# Disc length: 4775 seconds
#
# Revision: 1
# Processed by: cddbd v1.5.2PL0 Copyright (c) Steve Scherf et al.
# Submitted via: audiograbber 1.83.01
#
DISCID=d212a51e
DTITLE=Johnny Doe - The Johnny Cash Sound of Johnny Doe AKA Stan Farlow
DYEAR=1900
DGENRE=Country
TTITLE0=Stan Farlow - Hot Wheels
TTITLE1=Stan Farlow - The Man in Black
TTITLE2=Stan Farlow - Folsom Prison Blues
TTITLE3=Stan Farlow - Devil River
TTITLE4=Stan Farlow - 1040 Blues
TTITLE5=Stan Farlow - Lettin' It All Hang Out
TTITLE6=Johnny Doe - Devil Train
TTITLE7=Johnny Doe - Cab Drivin' Man
TTITLE8=Johnny Doe - Blistered
TTITLE9=Johnny Doe - San Quentin
TTITLE10=Johnny Doe - A Boy Named Sue
TTITLE11=Johnny Doe - I Walk the Line
TTITLE12=Johnny Doe - The Rebel
TTITLE13=Johnny Doe - Twenty-Five Minutes to Go
TTITLE14=Johnny Doe - Bad News
TTITLE15=Johnny Doe - The Best That I Can Do
TTITLE16=Johnny Doe - Columbus Stockade Blues
TTITLE17=Johnny Doe - Drivin' Me Out Of My Mind
TTITLE18=Johnny Doe - East Bound Train
TTITLE19=Johnny Doe - Hey Porter
TTITLE20=Johnny Doe - I Still Miss Someone
TTITLE21=Johnny Doe - I Got Stripes
TTITLE22=Johnny Doe - Ballad of Ira Hayes
TTITLE23=Johnny Doe - Not Many Miles Left In Me
TTITLE24=Johnny Doe - Ring of Fire
TTITLE25=Johnny Doe - Sunday Morning Coming Down
TTITLE26=Johnny Doe - Orange Blossom Special
TTITLE27=Johnny Doe - Wreck of the Old 97
TTITLE28=Johnny Doe - Reuben James
TTITLE29=Johnny Doe - Plan of a Lifetime
EXTD=
EXTT0=
EXTT1=
EXTT2=
EXTT3=
EXTT4=
EXTT5=
EXTT6=
EXTT7=
EXTT8=
EXTT9=
EXTT10=
EXTT11=
EXTT12=
EXTT13=
EXTT14=
EXTT15=
EXTT16=
EXTT17=
EXTT18=
EXTT19=
EXTT20=
EXTT21=
EXTT22=
EXTT23=
EXTT24=
EXTT25=
EXTT26=
EXTT27=
EXTT28=
EXTT29=
PLAYORDER=
